<?xml version="1.0" encoding="UTF-8"?>
<svg width="46px" height="46px" viewBox="0 0 46 46" version="1.1" xmlns="http://www.w3.org/2000/svg" xmlns:xlink="http://www.w3.org/1999/xlink">
    <!-- Generator: Sketch 55.2 (78181) - https://sketchapp.com -->
    <title>Group</title>
    <desc>Created with Sketch.</desc>
    <g id="Page-1" stroke="none" stroke-width="1" fill="none" fill-rule="evenodd">
        <g id="Desktop" transform="translate(-130.000000, -886.000000)" fill="#FFFFFF" fill-rule="nonzero">
            <g id="Group" transform="translate(130.000000, 886.000000)">
                <path d="M24.3384762,19.3750811 C24.2127616,19.1437568 23.9734753,19 23.714189,19 L22.2856141,19 C22.0263278,19 21.7870415,19.1437568 21.6613269,19.3750811 L18.0898899,25.9426486 C17.9927468,26.1214324 17.973461,26.3337838 18.0363183,26.5278919 L19.8656084,32.1351351 L19.4284645,32.1351351 C19.0341778,32.1351351 18.7141771,32.4620541 18.7141771,32.8648649 L18.7141771,35.7837838 C18.7141771,36.1865946 19.0341778,36.5135135 19.4284645,36.5135135 L19.4284645,45.2702703 C19.4284645,45.6730811 19.7484653,46 20.1427519,46 L25.8570512,46 C26.2513379,46 26.5713386,45.6730811 26.5713386,45.2702703 L26.5713386,36.5135135 C26.9656253,36.5135135 27.285626,36.1865946 27.285626,35.7837838 L27.285626,32.8648649 C27.285626,32.4620541 26.9656253,32.1351351 26.5713386,32.1351351 L26.1341947,32.1351351 L27.9634848,26.5278919 C28.0263421,26.3337838 28.0077706,26.1214324 27.9099132,25.9426486 L24.3384762,19.3750811 Z M25.1427638,33.5945946 L25.8570512,33.5945946 L25.8570512,35.0540541 L20.1427519,35.0540541 L20.1427519,33.5945946 L20.8570393,33.5945946 L25.1427638,33.5945946 Z M25.1427638,44.5405405 L20.8570393,44.5405405 L20.8570393,36.5135135 L25.1427638,36.5135135 L25.1427638,44.5405405 Z M24.6277626,32.1351351 L23.714189,32.1351351 L23.714189,27.027027 L24.4284764,27.027027 L24.4284764,25.5675676 L21.5713267,25.5675676 L21.5713267,27.027027 L22.2856141,27.027027 L22.2856141,32.1351351 L21.3720405,32.1351351 L19.4913218,26.371 L22.7056151,20.4594595 L23.2934737,20.4594595 L26.507767,26.371 L24.6277626,32.1351351 Z" id="Shape"></path>
                <path d="M21.0123636,14.0867692 C21.3541818,14.8496923 22.1149091,15.3846154 23,15.3846154 C23.8850909,15.3846154 24.6450909,14.8504231 24.9869091,14.0882308 C30.8349091,14.9907308 35.4254545,19.8532692 36.0130909,25.7746923 C35.208,26.0969615 34.6363636,26.8847308 34.6363636,27.8076923 C34.6363636,29.0163846 35.6152727,30 36.8181818,30 C38.0210909,30 39,29.0163846 39,27.8076923 C39,26.8277308 38.3527273,26.0056154 37.4683636,25.7257308 C36.9912727,20.5686923 33.7869091,16.1175769 29.3032727,13.9230769 L33.1818182,13.9230769 L33.1818182,14.6538462 C33.1818182,15.0572308 33.5076364,15.3846154 33.9090909,15.3846154 L36.8181818,15.3846154 C37.2196364,15.3846154 37.5454545,15.0572308 37.5454545,14.6538462 L37.5454545,11.7307692 C37.5454545,11.3273846 37.2196364,11 36.8181818,11 L33.9090909,11 C33.5076364,11 33.1818182,11.3273846 33.1818182,11.7307692 L33.1818182,12.4615385 L25.048,12.4615385 C24.7469091,11.6131154 23.9469091,11 23,11 C22.0530909,11 21.2530909,11.6131154 20.952,12.4615385 L12.8181818,12.4615385 L12.8181818,11.7307692 C12.8181818,11.3273846 12.4923636,11 12.0909091,11 L9.18181818,11 C8.78036364,11 8.45454545,11.3273846 8.45454545,11.7307692 L8.45454545,14.6538462 C8.45454545,15.0572308 8.78036364,15.3846154 9.18181818,15.3846154 L12.0909091,15.3846154 C12.4923636,15.3846154 12.8181818,15.0572308 12.8181818,14.6538462 L12.8181818,13.9230769 L16.6770909,13.9230769 C12.1985455,16.1146538 9.008,20.5577308 8.53163636,25.7257308 C7.64727273,26.0056154 7,26.8277308 7,27.8076923 C7,29.0163846 7.97890909,30 9.18181818,30 C10.3847273,30 11.3636364,29.0163846 11.3636364,27.8076923 C11.3636364,26.8847308 10.792,26.0969615 9.98690909,25.7739615 C10.5738182,19.8342692 15.1563636,14.9892692 21.0123636,14.0867692 Z M36.8181818,28.5384615 C36.4174545,28.5384615 36.0909091,28.2103462 36.0909091,27.8076923 C36.0909091,27.4050385 36.4174545,27.0769231 36.8181818,27.0769231 C37.2189091,27.0769231 37.5454545,27.4050385 37.5454545,27.8076923 C37.5454545,28.2103462 37.2189091,28.5384615 36.8181818,28.5384615 Z M34.6363636,12.4615385 L36.0909091,12.4615385 L36.0909091,13.9230769 L34.6363636,13.9230769 L34.6363636,12.4615385 Z M11.3636364,13.9230769 L9.90909091,13.9230769 L9.90909091,12.4615385 L11.3636364,12.4615385 L11.3636364,13.9230769 Z M23,12.4615385 C23.4007273,12.4615385 23.7272727,12.7896538 23.7272727,13.1923077 C23.7272727,13.5949615 23.4007273,13.9230769 23,13.9230769 C22.5992727,13.9230769 22.2727273,13.5949615 22.2727273,13.1923077 C22.2727273,12.7896538 22.5992727,12.4615385 23,12.4615385 Z M9.18181818,28.5384615 C8.78109091,28.5384615 8.45454545,28.2103462 8.45454545,27.8076923 C8.45454545,27.4050385 8.78109091,27.0769231 9.18181818,27.0769231 C9.58254545,27.0769231 9.90909091,27.4050385 9.90909091,27.8076923 C9.90909091,28.2103462 9.58254545,28.5384615 9.18181818,28.5384615 Z" id="Shape"></path>
                <path d="M45.28125,0 L0.71875,0 C0.322,0 0,0.32 0,0.714285714 L0,6.42857143 L0,39.2857143 C0,39.68 0.322,40 0.71875,40 L17.96875,40 L17.96875,38.5714286 L1.4375,38.5714286 L1.4375,7.14285714 L44.5625,7.14285714 L44.5625,38.5714286 L28.03125,38.5714286 L28.03125,40 L45.28125,40 C45.678,40 46,39.68 46,39.2857143 L46,6.42857143 L46,0.714285714 C46,0.32 45.678,0 45.28125,0 Z M1.4375,5.71428571 L1.4375,1.42857143 L44.5625,1.42857143 L44.5625,5.71428571 L1.4375,5.71428571 Z" id="Shape"></path>
                <rect id="Rectangle" x="5" y="3" width="1" height="1"></rect>
                <rect id="Rectangle" x="7" y="3" width="1" height="1"></rect>
                <rect id="Rectangle" x="10" y="3" width="1" height="1"></rect>
                <rect id="Rectangle" x="38" y="3" width="4" height="1"></rect>
                <rect id="Rectangle" x="23" y="39" width="1" height="3"></rect>
            </g>
        </g>
    </g>
</svg>